<svg id="visual" viewBox="0 0 900 200" width="900" height="200" xmlns="http://www.w3.org/2000/svg" xmlns:xlink="http://www.w3.org/1999/xlink" version="1.1"><rect x="0" y="0" width="900" height="200" fill="#001220"></rect><path d="M0 101L21.5 105.8C43 110.7 86 120.3 128.8 123.3C171.7 126.3 214.3 122.7 257.2 118.7C300 114.7 343 110.3 385.8 107.5C428.7 104.7 471.3 103.3 514.2 106C557 108.7 600 115.3 642.8 119.2C685.7 123 728.3 124 771.2 122.7C814 121.3 857 117.7 878.5 115.8L900 114L900 201L878.5 201C857 201 814 201 771.2 201C728.3 201 685.7 201 642.8 201C600 201 557 201 514.2 201C471.3 201 428.7 201 385.8 201C343 201 300 201 257.2 201C214.3 201 171.7 201 128.8 201C86 201 43 201 21.5 201L0 201Z" fill="#009473"></path><path d="M0 131L21.5 132.5C43 134 86 137 128.8 140.3C171.7 143.7 214.3 147.3 257.2 148C300 148.7 343 146.3 385.8 141.2C428.7 136 471.3 128 514.2 124.2C557 120.3 600 120.7 642.8 120.8C685.7 121 728.3 121 771.2 122C814 123 857 125 878.5 126L900 127L900 201L878.5 201C857 201 814 201 771.2 201C728.3 201 685.7 201 642.8 201C600 201 557 201 514.2 201C471.3 201 428.7 201 385.8 201C343 201 300 201 257.2 201C214.3 201 171.7 201 128.8 201C86 201 43 201 21.5 201L0 201Z" fill="#0b856a"></path><path d="M0 158L21.5 156.5C43 155 86 152 128.8 152C171.7 152 214.3 155 257.2 154.2C300 153.3 343 148.7 385.8 148.3C428.7 148 471.3 152 514.2 153C557 154 600 152 642.8 148.8C685.7 145.7 728.3 141.3 771.2 142.8C814 144.3 857 151.7 878.5 155.3L900 159L900 201L878.5 201C857 201 814 201 771.2 201C728.3 201 685.7 201 642.8 201C600 201 557 201 514.2 201C471.3 201 428.7 201 385.8 201C343 201 300 201 257.2 201C214.3 201 171.7 201 128.8 201C86 201 43 201 21.5 201L0 201Z" fill="#147661"></path><path d="M0 175L21.5 171.2C43 167.3 86 159.7 128.8 156C171.7 152.3 214.3 152.7 257.2 155.5C300 158.3 343 163.7 385.8 166.8C428.7 170 471.3 171 514.2 169.3C557 167.7 600 163.3 642.8 163.3C685.7 163.3 728.3 167.7 771.2 168.5C814 169.3 857 166.7 878.5 165.3L900 164L900 201L878.5 201C857 201 814 201 771.2 201C728.3 201 685.7 201 642.8 201C600 201 557 201 514.2 201C471.3 201 428.7 201 385.8 201C343 201 300 201 257.2 201C214.3 201 171.7 201 128.8 201C86 201 43 201 21.5 201L0 201Z" fill="#1a6857"></path><path d="M0 185L21.5 183.5C43 182 86 179 128.8 179.2C171.7 179.3 214.3 182.7 257.2 183.7C300 184.7 343 183.3 385.8 183.3C428.7 183.3 471.3 184.7 514.2 184C557 183.3 600 180.7 642.8 178.8C685.7 177 728.3 176 771.2 175.7C814 175.3 857 175.7 878.5 175.8L900 176L900 201L878.5 201C857 201 814 201 771.2 201C728.3 201 685.7 201 642.8 201C600 201 557 201 514.2 201C471.3 201 428.7 201 385.8 201C343 201 300 201 257.2 201C214.3 201 171.7 201 128.8 201C86 201 43 201 21.5 201L0 201Z" fill="#1d5a4d"></path></svg>